<?xml version="1.0" encoding="UTF-8" standalone="no"?>
<!DOCTYPE svg PUBLIC "-//W3C//DTD SVG 1.1//EN"
 "http://www.w3.org/Graphics/SVG/1.1/DTD/svg11.dtd">
<!-- Generated by graphviz version 2.40.1 (20161225.0304)
 -->
<!-- Title: dependencies Pages: 1 -->
<svg width="504pt" height="211pt"
 viewBox="0.00 0.00 504.00 211.00" xmlns="http://www.w3.org/2000/svg" xmlns:xlink="http://www.w3.org/1999/xlink">
<g id="graph0" class="graph" transform="scale(1 1) rotate(0) translate(4 207)">
<title>dependencies</title>
<polygon fill="#ffffff" stroke="transparent" points="-4,4 -4,-207 500,-207 500,4 -4,4"/>
<text text-anchor="start" x="227.0091" y="-42.4" font-family="sans-serif" font-weight="bold" font-size="14.00" fill="#000000">Legend</text>
<polygon fill="#ffffb3" stroke="transparent" points="14,-10 14,-30 34,-30 34,-10 14,-10"/>
<text text-anchor="start" x="37.629" y="-15.4" font-family="sans-serif" font-size="14.00" fill="#000000"> &#160;Declarations</text>
<polygon fill="#8dd3c7" stroke="transparent" points="127,-10 127,-30 147,-30 147,-10 127,-10"/>
<text text-anchor="start" x="150.7251" y="-15.4" font-family="sans-serif" font-size="14.00" fill="#000000"> &#160;Module</text>
<polygon fill="#80b1d3" stroke="transparent" points="213,-10 213,-30 233,-30 233,-10 213,-10"/>
<text text-anchor="start" x="236.7812" y="-15.4" font-family="sans-serif" font-size="14.00" fill="#000000"> &#160;Bootstrap</text>
<polygon fill="#fdb462" stroke="transparent" points="310,-10 310,-30 330,-30 330,-10 310,-10"/>
<text text-anchor="start" x="333.6732" y="-15.4" font-family="sans-serif" font-size="14.00" fill="#000000"> &#160;Providers</text>
<polygon fill="#fb8072" stroke="transparent" points="406,-10 406,-30 426,-30 426,-10 406,-10"/>
<text text-anchor="start" x="429.7258" y="-15.4" font-family="sans-serif" font-size="14.00" fill="#000000"> &#160;Exports</text>
<g id="clust1" class="cluster">
<title>cluster_PlanetsModule</title>
<polygon fill="none" stroke="#000000" stroke-dasharray="1,5" points="78,-70 78,-195 418,-195 418,-70 78,-70"/>
</g>
<g id="clust6" class="cluster">
<title>cluster_PlanetsModule_providers</title>
<polygon fill="none" stroke="#000000" points="86,-78 86,-130 410,-130 410,-78 86,-78"/>
</g>
<!-- PlanetService -->
<g id="node1" class="node">
<title>PlanetService</title>
<ellipse fill="#fdb462" stroke="#000000" cx="338" cy="-104" rx="64.2591" ry="18"/>
<text text-anchor="middle" x="338" y="-99.8" font-family="Times,serif" font-size="14.00" fill="#000000">PlanetService</text>
</g>
<!-- PlanetsModule -->
<g id="node3" class="node">
<title>PlanetsModule</title>
<polygon fill="#8dd3c7" stroke="#000000" points="305.9874,-187 302.9874,-191 281.9874,-191 278.9874,-187 206.0126,-187 206.0126,-151 305.9874,-151 305.9874,-187"/>
<text text-anchor="middle" x="256" y="-164.8" font-family="Times,serif" font-size="14.00" fill="#000000">PlanetsModule</text>
</g>
<!-- PlanetService&#45;&gt;PlanetsModule -->
<g id="edge1" class="edge">
<title>PlanetService&#45;&gt;PlanetsModule</title>
<path fill="none" stroke="#000000" d="M289.9321,-115.922C289.9321,-115.922 289.9321,-140.7669 289.9321,-140.7669"/>
<polygon fill="#000000" stroke="#000000" points="286.4322,-140.7669 289.9321,-150.7669 293.4322,-140.7669 286.4322,-140.7669"/>
</g>
<!-- SwapiHttpService -->
<g id="node2" class="node">
<title>SwapiHttpService</title>
<ellipse fill="#fdb462" stroke="#000000" cx="175" cy="-104" rx="81.0956" ry="18"/>
<text text-anchor="middle" x="175" y="-99.8" font-family="Times,serif" font-size="14.00" fill="#000000">SwapiHttpService</text>
</g>
<!-- SwapiHttpService&#45;&gt;PlanetsModule -->
<g id="edge2" class="edge">
<title>SwapiHttpService&#45;&gt;PlanetsModule</title>
<path fill="none" stroke="#000000" d="M231.1519,-117.1537C231.1519,-117.1537 231.1519,-140.6938 231.1519,-140.6938"/>
<polygon fill="#000000" stroke="#000000" points="227.652,-140.6938 231.1519,-150.6938 234.652,-140.6939 227.652,-140.6938"/>
</g>
</g>
</svg>
