<?xml version="1.0" encoding="UTF-8" standalone="no"?>
<!DOCTYPE svg PUBLIC "-//W3C//DTD SVG 1.1//EN"
 "http://www.w3.org/Graphics/SVG/1.1/DTD/svg11.dtd">
<!-- Generated by graphviz version 2.40.1 (20161225.0304)
 -->
<!-- Title: dependencies Pages: 1 -->
<svg width="504pt" height="287pt"
 viewBox="0.00 0.00 504.00 287.00" xmlns="http://www.w3.org/2000/svg" xmlns:xlink="http://www.w3.org/1999/xlink">
<g id="graph0" class="graph" transform="scale(1 1) rotate(0) translate(4 283)">
<title>dependencies</title>
<polygon fill="#ffffff" stroke="transparent" points="-4,4 -4,-283 500,-283 500,4 -4,4"/>
<text text-anchor="start" x="227.0091" y="-42.4" font-family="sans-serif" font-weight="bold" font-size="14.00" fill="#000000">Legend</text>
<polygon fill="#ffffb3" stroke="transparent" points="14,-10 14,-30 34,-30 34,-10 14,-10"/>
<text text-anchor="start" x="37.629" y="-15.4" font-family="sans-serif" font-size="14.00" fill="#000000"> &#160;Declarations</text>
<polygon fill="#8dd3c7" stroke="transparent" points="127,-10 127,-30 147,-30 147,-10 127,-10"/>
<text text-anchor="start" x="150.7251" y="-15.4" font-family="sans-serif" font-size="14.00" fill="#000000"> &#160;Module</text>
<polygon fill="#80b1d3" stroke="transparent" points="213,-10 213,-30 233,-30 233,-10 213,-10"/>
<text text-anchor="start" x="236.7812" y="-15.4" font-family="sans-serif" font-size="14.00" fill="#000000"> &#160;Bootstrap</text>
<polygon fill="#fdb462" stroke="transparent" points="310,-10 310,-30 330,-30 330,-10 310,-10"/>
<text text-anchor="start" x="333.6732" y="-15.4" font-family="sans-serif" font-size="14.00" fill="#000000"> &#160;Providers</text>
<polygon fill="#fb8072" stroke="transparent" points="406,-10 406,-30 426,-30 426,-10 406,-10"/>
<text text-anchor="start" x="429.7258" y="-15.4" font-family="sans-serif" font-size="14.00" fill="#000000"> &#160;Exports</text>
<g id="clust1" class="cluster">
<title>cluster_AppModule</title>
<polygon fill="none" stroke="#000000" stroke-dasharray="1,5" points="79,-146 79,-271 349,-271 349,-146 79,-146"/>
</g>
<g id="clust3" class="cluster">
<title>cluster_AppModule_imports</title>
<polygon fill="none" stroke="#000000" points="225,-154 225,-206 341,-206 341,-154 225,-154"/>
</g>
<g id="clust6" class="cluster">
<title>cluster_AppModule_providers</title>
<polygon fill="none" stroke="#000000" points="87,-154 87,-206 217,-206 217,-154 87,-154"/>
</g>
<g id="clust7" class="cluster">
<title>cluster_PlanetsModule</title>
<polygon fill="none" stroke="#000000" stroke-dasharray="1,5" points="78,-70 78,-138 418,-138 418,-70 78,-70"/>
</g>
<g id="clust12" class="cluster">
<title>cluster_PlanetsModule_providers</title>
<polygon fill="none" stroke="#000000" points="86,-78 86,-130 410,-130 410,-78 86,-78"/>
</g>
<!-- PlanetsModule -->
<g id="node1" class="node">
<title>PlanetsModule</title>
<polygon fill="#8dd3c7" stroke="#000000" points="332.9874,-198 329.9874,-202 308.9874,-202 305.9874,-198 233.0126,-198 233.0126,-162 332.9874,-162 332.9874,-198"/>
<text text-anchor="middle" x="283" y="-175.8" font-family="Times,serif" font-size="14.00" fill="#000000">PlanetsModule</text>
</g>
<!-- AppModule -->
<g id="node2" class="node">
<title>AppModule</title>
<polygon fill="#8dd3c7" stroke="#000000" points="258.6571,-263 255.6571,-267 234.6571,-267 231.6571,-263 175.3429,-263 175.3429,-227 258.6571,-227 258.6571,-263"/>
<text text-anchor="middle" x="217" y="-240.8" font-family="Times,serif" font-size="14.00" fill="#000000">AppModule</text>
</g>
<!-- PlanetsModule&#45;&gt;AppModule -->
<g id="edge1" class="edge">
<title>PlanetsModule&#45;&gt;AppModule</title>
<path fill="none" stroke="#000000" d="M245.9173,-198.1061C245.9173,-198.1061 245.9173,-216.991 245.9173,-216.991"/>
<polygon fill="#000000" stroke="#000000" points="242.4173,-216.9909 245.9173,-226.991 249.4173,-216.991 242.4173,-216.9909"/>
</g>
<!-- AppService -->
<g id="node3" class="node">
<title>AppService</title>
<ellipse fill="#fdb462" stroke="#000000" cx="152" cy="-180" rx="56.7406" ry="18"/>
<text text-anchor="middle" x="152" y="-175.8" font-family="Times,serif" font-size="14.00" fill="#000000">AppService</text>
</g>
<!-- AppService&#45;&gt;AppModule -->
<g id="edge2" class="edge">
<title>AppService&#45;&gt;AppModule</title>
<path fill="none" stroke="#000000" d="M191.896,-192.8419C191.896,-192.8419 191.896,-216.5231 191.896,-216.5231"/>
<polygon fill="#000000" stroke="#000000" points="188.3961,-216.523 191.896,-226.5231 195.3961,-216.5231 188.3961,-216.523"/>
</g>
<!-- PlanetService -->
<g id="node4" class="node">
<title>PlanetService</title>
<ellipse fill="#fdb462" stroke="#000000" cx="338" cy="-104" rx="64.2591" ry="18"/>
<text text-anchor="middle" x="338" y="-99.8" font-family="Times,serif" font-size="14.00" fill="#000000">PlanetService</text>
</g>
<!-- PlanetService&#45;&gt;PlanetsModule -->
<g id="edge3" class="edge">
<title>PlanetService&#45;&gt;PlanetsModule</title>
<path fill="none" stroke="#000000" d="M303.4321,-119.3797C303.4321,-119.3797 303.4321,-151.971 303.4321,-151.971"/>
<polygon fill="#000000" stroke="#000000" points="299.9322,-151.971 303.4321,-161.971 306.9322,-151.971 299.9322,-151.971"/>
</g>
<!-- SwapiHttpService -->
<g id="node5" class="node">
<title>SwapiHttpService</title>
<ellipse fill="#fdb462" stroke="#000000" cx="175" cy="-104" rx="81.0956" ry="18"/>
<text text-anchor="middle" x="175" y="-99.8" font-family="Times,serif" font-size="14.00" fill="#000000">SwapiHttpService</text>
</g>
<!-- SwapiHttpService&#45;&gt;PlanetsModule -->
<g id="edge4" class="edge">
<title>SwapiHttpService&#45;&gt;PlanetsModule</title>
<path fill="none" stroke="#000000" d="M244.6519,-113.3191C244.6519,-113.3191 244.6519,-151.8927 244.6519,-151.8927"/>
<polygon fill="#000000" stroke="#000000" points="241.152,-151.8926 244.6519,-161.8927 248.152,-151.8927 241.152,-151.8926"/>
</g>
</g>
</svg>
